<svg width="24" height="24" viewBox="0 0 24 24" fill="none" xmlns="http://www.w3.org/2000/svg">
<path fill-rule="evenodd" clip-rule="evenodd" d="M16.4679 5.63633H11.4339L7.24582 0H14.3418L13.1733 0.79526L16.4679 5.63633ZM6 0H6.00004L5.19733 0.596455L8.94222 5.63633H0.5V7.63633H23V5.63633H18.8871L15.0513 0H18C21.3137 0 24 2.68629 24 6V18C24 21.3137 21.3137 24 18 24H6C2.68629 24 0 21.3137 0 18V6C0 2.68629 2.68629 0 6 0ZM15.4092 15.0479C16.0758 14.663 16.0758 13.7008 15.4092 13.3159L10.2274 10.3241C9.56069 9.93924 8.72736 10.4204 8.72736 11.1902V17.1736C8.72736 17.9434 9.5607 18.4245 10.2274 18.0396L15.4092 15.0479Z" fill="white"/>
</svg>
